<?xml version="1.0" encoding="UTF-8" standalone="no"?>
<!DOCTYPE svg PUBLIC "-//W3C//DTD SVG 1.1//EN" "http://www.w3.org/Graphics/SVG/1.1/DTD/svg11.dtd">
<svg width="100%" height="100%" viewBox="0 0 180 180" version="1.1" xmlns="http://www.w3.org/2000/svg" xmlns:xlink="http://www.w3.org/1999/xlink" xml:space="preserve" xmlns:serif="http://www.serif.com/" style="fill-rule:evenodd;clip-rule:evenodd;stroke-linejoin:round;stroke-miterlimit:2;">
    <g transform="matrix(1,0,0,1,-322.842,-293.531)">
        <g id="Safari-SVG" serif:id="Safari SVG" transform="matrix(1,0,0,1,322.842,293.531)">
            <rect x="0" y="0" width="180" height="180" style="fill:none;"/>
            <g transform="matrix(0.824766,0,0,0.824766,6.02088,22.3351)">
                <g transform="matrix(155,0,0,155,14.6366,134.504)">
                    <path d="M0.213,-0.148L0.169,-0.033C0.163,-0.017 0.155,-0.004 0.144,0.006C0.133,0.015 0.118,0.02 0.097,0.02C0.076,0.02 0.06,0.014 0.048,0.003C0.035,-0.008 0.034,-0.028 0.043,-0.055L0.249,-0.656C0.252,-0.667 0.26,-0.676 0.271,-0.685C0.282,-0.693 0.296,-0.697 0.315,-0.697C0.334,-0.697 0.349,-0.693 0.36,-0.685C0.371,-0.676 0.378,-0.667 0.381,-0.656L0.589,-0.053C0.597,-0.028 0.595,-0.009 0.583,0.003C0.57,0.014 0.554,0.02 0.533,0.02C0.512,0.021 0.497,0.016 0.487,0.007C0.477,-0.003 0.469,-0.015 0.464,-0.028L0.416,-0.148L0.213,-0.148ZM0.392,-0.261L0.315,-0.509L0.238,-0.261L0.392,-0.261Z" style="fill:rgb(242,6,2);fill-rule:nonzero;"/>
                </g>
                <g transform="matrix(155,0,0,155,101.902,134.504)">
                    <path d="M0.345,-0.571L0.345,-0.032C0.345,-0.019 0.34,-0.007 0.33,0.004C0.32,0.015 0.303,0.02 0.28,0.02C0.257,0.02 0.24,0.014 0.23,0.003C0.22,-0.008 0.215,-0.02 0.215,-0.032L0.215,-0.571L0.087,-0.571C0.075,-0.571 0.063,-0.575 0.052,-0.584C0.041,-0.593 0.035,-0.608 0.035,-0.629C0.035,-0.65 0.04,-0.665 0.051,-0.674C0.062,-0.683 0.074,-0.687 0.087,-0.687L0.473,-0.687C0.486,-0.687 0.498,-0.683 0.509,-0.674C0.52,-0.665 0.525,-0.65 0.525,-0.629C0.525,-0.608 0.519,-0.593 0.508,-0.584C0.497,-0.575 0.485,-0.571 0.473,-0.571L0.345,-0.571Z" style="fill:rgb(242,6,2);fill-rule:nonzero;"/>
                </g>
            </g>
        </g>
    </g>
</svg>
